<mxfile host="Electron" modified="2024-04-21T03:38:30.646Z" agent="Mozilla/5.0 (Windows NT 10.0; Win64; x64) AppleWebKit/537.36 (KHTML, like Gecko) draw.io/23.1.5 Chrome/120.0.6099.109 Electron/28.1.0 Safari/537.36" etag="dF6-rjq-XappllX4Lwg9" version="23.1.5" type="device">
  <diagram name="Page-1" id="vHC8sGFKOIkiMizM-Zrc">
    <mxGraphModel dx="1600" dy="2136" grid="1" gridSize="10" guides="1" tooltips="1" connect="1" arrows="1" fold="1" page="1" pageScale="1" pageWidth="827" pageHeight="1169" math="0" shadow="0">
      <root>
        <mxCell id="0" />
        <mxCell id="1" parent="0" />
        <mxCell id="9v5ITnaCEAP25ajlPp7t-47" value="" style="group" vertex="1" connectable="0" parent="1">
          <mxGeometry x="150" y="200" width="490" height="590" as="geometry" />
        </mxCell>
        <mxCell id="HS3srLB-XvaPmOaS-rye-1" value="START" style="ellipse;whiteSpace=wrap;html=1;" parent="9v5ITnaCEAP25ajlPp7t-47" vertex="1">
          <mxGeometry x="30" width="120" height="50" as="geometry" />
        </mxCell>
        <mxCell id="HS3srLB-XvaPmOaS-rye-2" value="Khởi tạo và cấu hình các tài nguyên cần sử dụng" style="rounded=0;whiteSpace=wrap;html=1;" parent="9v5ITnaCEAP25ajlPp7t-47" vertex="1">
          <mxGeometry y="90" width="180" height="60" as="geometry" />
        </mxCell>
        <mxCell id="HS3srLB-XvaPmOaS-rye-8" value="" style="edgeStyle=orthogonalEdgeStyle;rounded=0;orthogonalLoop=1;jettySize=auto;html=1;" parent="9v5ITnaCEAP25ajlPp7t-47" source="HS3srLB-XvaPmOaS-rye-1" target="HS3srLB-XvaPmOaS-rye-2" edge="1">
          <mxGeometry relative="1" as="geometry" />
        </mxCell>
        <mxCell id="HS3srLB-XvaPmOaS-rye-10" value="" style="edgeStyle=orthogonalEdgeStyle;rounded=0;orthogonalLoop=1;jettySize=auto;html=1;" parent="9v5ITnaCEAP25ajlPp7t-47" target="HS3srLB-XvaPmOaS-rye-4" edge="1">
          <mxGeometry relative="1" as="geometry">
            <mxPoint x="90" y="230" as="sourcePoint" />
          </mxGeometry>
        </mxCell>
        <mxCell id="HS3srLB-XvaPmOaS-rye-4" value="Xử lý sự kiện khi bắt đầu cấp nguồn" style="rounded=0;whiteSpace=wrap;html=1;" parent="9v5ITnaCEAP25ajlPp7t-47" vertex="1">
          <mxGeometry y="190" width="180" height="60" as="geometry" />
        </mxCell>
        <mxCell id="EfAXBWDbnnw8O62imFto-1" style="edgeStyle=orthogonalEdgeStyle;rounded=0;orthogonalLoop=1;jettySize=auto;html=1;exitX=0.5;exitY=1;exitDx=0;exitDy=0;entryX=0.5;entryY=0;entryDx=0;entryDy=0;" parent="9v5ITnaCEAP25ajlPp7t-47" source="HS3srLB-XvaPmOaS-rye-2" target="HS3srLB-XvaPmOaS-rye-4" edge="1">
          <mxGeometry relative="1" as="geometry" />
        </mxCell>
        <mxCell id="HS3srLB-XvaPmOaS-rye-7" value="Ghi nhận sự kiện thông qua ngắt" style="rounded=0;whiteSpace=wrap;html=1;" parent="9v5ITnaCEAP25ajlPp7t-47" vertex="1">
          <mxGeometry x="240" y="324" width="210" height="60" as="geometry" />
        </mxCell>
        <mxCell id="1xYAKOkJtCq9gRjPWM1_-3" style="edgeStyle=orthogonalEdgeStyle;rounded=0;orthogonalLoop=1;jettySize=auto;html=1;exitX=1;exitY=0.5;exitDx=0;exitDy=0;entryX=0;entryY=0.5;entryDx=0;entryDy=0;" parent="9v5ITnaCEAP25ajlPp7t-47" source="1xYAKOkJtCq9gRjPWM1_-1" target="HS3srLB-XvaPmOaS-rye-7" edge="1">
          <mxGeometry relative="1" as="geometry" />
        </mxCell>
        <mxCell id="1xYAKOkJtCq9gRjPWM1_-4" value="Đúng" style="edgeLabel;html=1;align=center;verticalAlign=middle;resizable=0;points=[];" parent="1xYAKOkJtCq9gRjPWM1_-3" vertex="1" connectable="0">
          <mxGeometry x="0.0111" y="1" relative="1" as="geometry">
            <mxPoint y="-3" as="offset" />
          </mxGeometry>
        </mxCell>
        <mxCell id="1xYAKOkJtCq9gRjPWM1_-5" style="edgeStyle=orthogonalEdgeStyle;rounded=0;orthogonalLoop=1;jettySize=auto;html=1;exitX=0.5;exitY=1;exitDx=0;exitDy=0;entryX=0.5;entryY=0;entryDx=0;entryDy=0;" parent="9v5ITnaCEAP25ajlPp7t-47" source="1xYAKOkJtCq9gRjPWM1_-1" edge="1">
          <mxGeometry relative="1" as="geometry">
            <mxPoint x="90" y="540" as="targetPoint" />
          </mxGeometry>
        </mxCell>
        <mxCell id="1xYAKOkJtCq9gRjPWM1_-6" value="Sai" style="edgeLabel;html=1;align=center;verticalAlign=middle;resizable=0;points=[];" parent="1xYAKOkJtCq9gRjPWM1_-5" vertex="1" connectable="0">
          <mxGeometry x="-0.1294" y="-2" relative="1" as="geometry">
            <mxPoint as="offset" />
          </mxGeometry>
        </mxCell>
        <mxCell id="1xYAKOkJtCq9gRjPWM1_-1" value="true" style="rhombus;whiteSpace=wrap;html=1;" parent="9v5ITnaCEAP25ajlPp7t-47" vertex="1">
          <mxGeometry x="30" y="320" width="120" height="65" as="geometry" />
        </mxCell>
        <mxCell id="1xYAKOkJtCq9gRjPWM1_-2" style="edgeStyle=orthogonalEdgeStyle;rounded=0;orthogonalLoop=1;jettySize=auto;html=1;exitX=0.5;exitY=1;exitDx=0;exitDy=0;entryX=0.5;entryY=0;entryDx=0;entryDy=0;" parent="9v5ITnaCEAP25ajlPp7t-47" source="HS3srLB-XvaPmOaS-rye-4" target="1xYAKOkJtCq9gRjPWM1_-1" edge="1">
          <mxGeometry relative="1" as="geometry" />
        </mxCell>
        <mxCell id="1xYAKOkJtCq9gRjPWM1_-10" value="(Sơ đồ 1)" style="text;html=1;align=center;verticalAlign=middle;whiteSpace=wrap;rounded=0;" parent="9v5ITnaCEAP25ajlPp7t-47" vertex="1">
          <mxGeometry x="315" y="550" width="60" height="30" as="geometry" />
        </mxCell>
        <mxCell id="1xYAKOkJtCq9gRjPWM1_-29" value="END" style="ellipse;whiteSpace=wrap;html=1;" parent="9v5ITnaCEAP25ajlPp7t-47" vertex="1">
          <mxGeometry x="30" y="540" width="120" height="50" as="geometry" />
        </mxCell>
        <mxCell id="1xYAKOkJtCq9gRjPWM1_-34" style="edgeStyle=orthogonalEdgeStyle;rounded=0;orthogonalLoop=1;jettySize=auto;html=1;exitX=1;exitY=0.5;exitDx=0;exitDy=0;" parent="9v5ITnaCEAP25ajlPp7t-47" source="1xYAKOkJtCq9gRjPWM1_-31" edge="1">
          <mxGeometry relative="1" as="geometry">
            <mxPoint x="90" y="280" as="targetPoint" />
            <Array as="points">
              <mxPoint x="490" y="470" />
              <mxPoint x="490" y="280" />
            </Array>
          </mxGeometry>
        </mxCell>
        <mxCell id="9v5ITnaCEAP25ajlPp7t-21" value="" style="edgeStyle=orthogonalEdgeStyle;rounded=0;orthogonalLoop=1;jettySize=auto;html=1;" edge="1" parent="9v5ITnaCEAP25ajlPp7t-47" source="1xYAKOkJtCq9gRjPWM1_-31" target="1xYAKOkJtCq9gRjPWM1_-10">
          <mxGeometry relative="1" as="geometry" />
        </mxCell>
        <mxCell id="1xYAKOkJtCq9gRjPWM1_-31" value="Kiểm tra và xử lý sự kiện" style="rounded=0;whiteSpace=wrap;html=1;" parent="9v5ITnaCEAP25ajlPp7t-47" vertex="1">
          <mxGeometry x="240" y="430" width="210" height="60" as="geometry" />
        </mxCell>
        <mxCell id="1xYAKOkJtCq9gRjPWM1_-35" value="" style="edgeStyle=orthogonalEdgeStyle;rounded=0;orthogonalLoop=1;jettySize=auto;html=1;" parent="9v5ITnaCEAP25ajlPp7t-47" source="HS3srLB-XvaPmOaS-rye-7" target="1xYAKOkJtCq9gRjPWM1_-31" edge="1">
          <mxGeometry relative="1" as="geometry" />
        </mxCell>
        <mxCell id="9v5ITnaCEAP25ajlPp7t-61" value="" style="group" vertex="1" connectable="0" parent="1">
          <mxGeometry x="60" y="1202" width="615" height="870" as="geometry" />
        </mxCell>
        <mxCell id="9v5ITnaCEAP25ajlPp7t-48" value="" style="group" vertex="1" connectable="0" parent="9v5ITnaCEAP25ajlPp7t-61">
          <mxGeometry x="20" y="45" width="595" height="809" as="geometry" />
        </mxCell>
        <mxCell id="1xYAKOkJtCq9gRjPWM1_-11" value="Kiểm tra số lần nhấn nút" style="rounded=0;whiteSpace=wrap;html=1;" parent="9v5ITnaCEAP25ajlPp7t-48" vertex="1">
          <mxGeometry x="1.5" y="123" width="170" height="57" as="geometry" />
        </mxCell>
        <mxCell id="9v5ITnaCEAP25ajlPp7t-1" value="" style="edgeStyle=orthogonalEdgeStyle;rounded=0;orthogonalLoop=1;jettySize=auto;html=1;" edge="1" parent="9v5ITnaCEAP25ajlPp7t-48" source="1xYAKOkJtCq9gRjPWM1_-12" target="1xYAKOkJtCq9gRjPWM1_-11">
          <mxGeometry relative="1" as="geometry" />
        </mxCell>
        <mxCell id="1xYAKOkJtCq9gRjPWM1_-12" value="Bắt đầu kiểm tra sự kiện" style="ellipse;whiteSpace=wrap;html=1;" parent="9v5ITnaCEAP25ajlPp7t-48" vertex="1">
          <mxGeometry x="11.5" width="150" height="75" as="geometry" />
        </mxCell>
        <mxCell id="9v5ITnaCEAP25ajlPp7t-4" style="edgeStyle=orthogonalEdgeStyle;rounded=0;orthogonalLoop=1;jettySize=auto;html=1;exitX=1;exitY=0.5;exitDx=0;exitDy=0;" edge="1" parent="9v5ITnaCEAP25ajlPp7t-48" source="1xYAKOkJtCq9gRjPWM1_-14">
          <mxGeometry relative="1" as="geometry">
            <mxPoint x="86.5" y="97" as="targetPoint" />
            <mxPoint x="172.5" y="262" as="sourcePoint" />
            <Array as="points">
              <mxPoint x="221.5" y="265" />
              <mxPoint x="221.5" y="97" />
            </Array>
          </mxGeometry>
        </mxCell>
        <mxCell id="9v5ITnaCEAP25ajlPp7t-5" value="Sai" style="edgeLabel;html=1;align=center;verticalAlign=middle;resizable=0;points=[];" vertex="1" connectable="0" parent="9v5ITnaCEAP25ajlPp7t-4">
          <mxGeometry x="-0.4431" y="-1" relative="1" as="geometry">
            <mxPoint as="offset" />
          </mxGeometry>
        </mxCell>
        <mxCell id="1xYAKOkJtCq9gRjPWM1_-14" value="Số lần nhấn nút khác 0&lt;span style=&quot;background-color:#2f2f2f;padding:0px 0px 0px 2px;&quot;&gt;&lt;/span&gt;" style="rhombus;whiteSpace=wrap;html=1;" parent="9v5ITnaCEAP25ajlPp7t-48" vertex="1">
          <mxGeometry y="230" width="172.5" height="70" as="geometry" />
        </mxCell>
        <mxCell id="9v5ITnaCEAP25ajlPp7t-2" value="" style="edgeStyle=orthogonalEdgeStyle;rounded=0;orthogonalLoop=1;jettySize=auto;html=1;" edge="1" parent="9v5ITnaCEAP25ajlPp7t-48" source="1xYAKOkJtCq9gRjPWM1_-11" target="1xYAKOkJtCq9gRjPWM1_-14">
          <mxGeometry relative="1" as="geometry" />
        </mxCell>
        <mxCell id="9v5ITnaCEAP25ajlPp7t-3" value="Đang giữ nút nhấn" style="rhombus;whiteSpace=wrap;html=1;" vertex="1" parent="9v5ITnaCEAP25ajlPp7t-48">
          <mxGeometry x="0.25" y="372" width="172.5" height="70" as="geometry" />
        </mxCell>
        <mxCell id="9v5ITnaCEAP25ajlPp7t-6" value="" style="edgeStyle=orthogonalEdgeStyle;rounded=0;orthogonalLoop=1;jettySize=auto;html=1;" edge="1" parent="9v5ITnaCEAP25ajlPp7t-48" source="1xYAKOkJtCq9gRjPWM1_-14" target="9v5ITnaCEAP25ajlPp7t-3">
          <mxGeometry relative="1" as="geometry" />
        </mxCell>
        <mxCell id="9v5ITnaCEAP25ajlPp7t-7" value="Đúng" style="edgeLabel;html=1;align=center;verticalAlign=middle;resizable=0;points=[];" vertex="1" connectable="0" parent="9v5ITnaCEAP25ajlPp7t-6">
          <mxGeometry x="-0.0955" relative="1" as="geometry">
            <mxPoint y="-10" as="offset" />
          </mxGeometry>
        </mxCell>
        <mxCell id="9v5ITnaCEAP25ajlPp7t-10" value="Thực hiện các sự kiện nhấn giữ nút" style="rounded=0;whiteSpace=wrap;html=1;" vertex="1" parent="9v5ITnaCEAP25ajlPp7t-48">
          <mxGeometry x="268.25" y="494" width="170" height="57" as="geometry" />
        </mxCell>
        <mxCell id="9v5ITnaCEAP25ajlPp7t-11" value="Thời gian nhấn nút&lt;br&gt;&amp;nbsp;&amp;gt;= 400 ms" style="rhombus;whiteSpace=wrap;html=1;" vertex="1" parent="9v5ITnaCEAP25ajlPp7t-48">
          <mxGeometry y="594" width="172.5" height="80" as="geometry" />
        </mxCell>
        <mxCell id="9v5ITnaCEAP25ajlPp7t-29" style="edgeStyle=orthogonalEdgeStyle;rounded=0;orthogonalLoop=1;jettySize=auto;html=1;entryX=0.5;entryY=0;entryDx=0;entryDy=0;" edge="1" parent="9v5ITnaCEAP25ajlPp7t-48" source="9v5ITnaCEAP25ajlPp7t-12" target="9v5ITnaCEAP25ajlPp7t-11">
          <mxGeometry relative="1" as="geometry" />
        </mxCell>
        <mxCell id="9v5ITnaCEAP25ajlPp7t-12" value="Kiểm tra thời gian nhấn nút" style="rounded=0;whiteSpace=wrap;html=1;" vertex="1" parent="9v5ITnaCEAP25ajlPp7t-48">
          <mxGeometry x="1.25" y="494" width="170" height="57" as="geometry" />
        </mxCell>
        <mxCell id="9v5ITnaCEAP25ajlPp7t-26" value="" style="edgeStyle=orthogonalEdgeStyle;rounded=0;orthogonalLoop=1;jettySize=auto;html=1;" edge="1" parent="9v5ITnaCEAP25ajlPp7t-48" source="9v5ITnaCEAP25ajlPp7t-3" target="9v5ITnaCEAP25ajlPp7t-12">
          <mxGeometry relative="1" as="geometry" />
        </mxCell>
        <mxCell id="9v5ITnaCEAP25ajlPp7t-28" value="Sai" style="edgeLabel;html=1;align=center;verticalAlign=middle;resizable=0;points=[];" vertex="1" connectable="0" parent="9v5ITnaCEAP25ajlPp7t-26">
          <mxGeometry x="-0.4336" relative="1" as="geometry">
            <mxPoint y="7" as="offset" />
          </mxGeometry>
        </mxCell>
        <mxCell id="9v5ITnaCEAP25ajlPp7t-24" value="" style="edgeStyle=orthogonalEdgeStyle;rounded=0;orthogonalLoop=1;jettySize=auto;html=1;" edge="1" parent="9v5ITnaCEAP25ajlPp7t-48" source="9v5ITnaCEAP25ajlPp7t-13" target="9v5ITnaCEAP25ajlPp7t-10">
          <mxGeometry relative="1" as="geometry" />
        </mxCell>
        <mxCell id="9v5ITnaCEAP25ajlPp7t-25" value="Đúng" style="edgeLabel;html=1;align=center;verticalAlign=middle;resizable=0;points=[];" vertex="1" connectable="0" parent="9v5ITnaCEAP25ajlPp7t-24">
          <mxGeometry x="-0.038" y="-1" relative="1" as="geometry">
            <mxPoint y="-3" as="offset" />
          </mxGeometry>
        </mxCell>
        <mxCell id="9v5ITnaCEAP25ajlPp7t-40" style="edgeStyle=orthogonalEdgeStyle;rounded=0;orthogonalLoop=1;jettySize=auto;html=1;exitX=0.5;exitY=0;exitDx=0;exitDy=0;" edge="1" parent="9v5ITnaCEAP25ajlPp7t-48" source="9v5ITnaCEAP25ajlPp7t-13">
          <mxGeometry relative="1" as="geometry">
            <mxPoint x="86.5" y="346" as="targetPoint" />
            <mxPoint x="346.5" y="370" as="sourcePoint" />
            <Array as="points">
              <mxPoint x="354" y="346" />
            </Array>
          </mxGeometry>
        </mxCell>
        <mxCell id="9v5ITnaCEAP25ajlPp7t-41" value="Sai" style="edgeLabel;html=1;align=center;verticalAlign=middle;resizable=0;points=[];" vertex="1" connectable="0" parent="9v5ITnaCEAP25ajlPp7t-40">
          <mxGeometry x="-0.4354" y="-1" relative="1" as="geometry">
            <mxPoint x="-80" as="offset" />
          </mxGeometry>
        </mxCell>
        <mxCell id="9v5ITnaCEAP25ajlPp7t-13" value="Thời gian giữ nút&lt;br&gt;&amp;gt; 500ms" style="rhombus;whiteSpace=wrap;html=1;" vertex="1" parent="9v5ITnaCEAP25ajlPp7t-48">
          <mxGeometry x="267.25" y="372" width="172.5" height="70" as="geometry" />
        </mxCell>
        <mxCell id="9v5ITnaCEAP25ajlPp7t-22" style="edgeStyle=orthogonalEdgeStyle;rounded=0;orthogonalLoop=1;jettySize=auto;html=1;entryX=0;entryY=0.5;entryDx=0;entryDy=0;" edge="1" parent="9v5ITnaCEAP25ajlPp7t-48" source="9v5ITnaCEAP25ajlPp7t-3" target="9v5ITnaCEAP25ajlPp7t-13">
          <mxGeometry relative="1" as="geometry" />
        </mxCell>
        <mxCell id="9v5ITnaCEAP25ajlPp7t-23" value="Đúng" style="edgeLabel;html=1;align=center;verticalAlign=middle;resizable=0;points=[];" vertex="1" connectable="0" parent="9v5ITnaCEAP25ajlPp7t-22">
          <mxGeometry x="-0.2394" y="1" relative="1" as="geometry">
            <mxPoint x="10" as="offset" />
          </mxGeometry>
        </mxCell>
        <mxCell id="9v5ITnaCEAP25ajlPp7t-14" value="Thực hiện các sự kiện nhấn nút" style="rounded=0;whiteSpace=wrap;html=1;" vertex="1" parent="9v5ITnaCEAP25ajlPp7t-48">
          <mxGeometry x="268.25" y="605.5" width="170" height="57" as="geometry" />
        </mxCell>
        <mxCell id="9v5ITnaCEAP25ajlPp7t-32" value="" style="edgeStyle=orthogonalEdgeStyle;rounded=0;orthogonalLoop=1;jettySize=auto;html=1;" edge="1" parent="9v5ITnaCEAP25ajlPp7t-48" source="9v5ITnaCEAP25ajlPp7t-11" target="9v5ITnaCEAP25ajlPp7t-14">
          <mxGeometry relative="1" as="geometry" />
        </mxCell>
        <mxCell id="9v5ITnaCEAP25ajlPp7t-34" value="Đúng" style="edgeLabel;html=1;align=center;verticalAlign=middle;resizable=0;points=[];" vertex="1" connectable="0" parent="9v5ITnaCEAP25ajlPp7t-32">
          <mxGeometry x="-0.0679" relative="1" as="geometry">
            <mxPoint y="-3" as="offset" />
          </mxGeometry>
        </mxCell>
        <mxCell id="9v5ITnaCEAP25ajlPp7t-15" value="(Sơ đồ 2)" style="text;html=1;align=center;verticalAlign=middle;whiteSpace=wrap;rounded=0;" vertex="1" parent="9v5ITnaCEAP25ajlPp7t-48">
          <mxGeometry x="535" y="564" width="60" height="30" as="geometry" />
        </mxCell>
        <mxCell id="9v5ITnaCEAP25ajlPp7t-36" style="edgeStyle=orthogonalEdgeStyle;rounded=0;orthogonalLoop=1;jettySize=auto;html=1;entryX=0;entryY=0.5;entryDx=0;entryDy=0;" edge="1" parent="9v5ITnaCEAP25ajlPp7t-48" source="9v5ITnaCEAP25ajlPp7t-10" target="9v5ITnaCEAP25ajlPp7t-15">
          <mxGeometry relative="1" as="geometry" />
        </mxCell>
        <mxCell id="9v5ITnaCEAP25ajlPp7t-35" style="edgeStyle=orthogonalEdgeStyle;rounded=0;orthogonalLoop=1;jettySize=auto;html=1;exitX=1;exitY=0.5;exitDx=0;exitDy=0;entryX=0;entryY=0.5;entryDx=0;entryDy=0;" edge="1" parent="9v5ITnaCEAP25ajlPp7t-48" source="9v5ITnaCEAP25ajlPp7t-14" target="9v5ITnaCEAP25ajlPp7t-15">
          <mxGeometry relative="1" as="geometry" />
        </mxCell>
        <mxCell id="9v5ITnaCEAP25ajlPp7t-20" value="END" style="ellipse;whiteSpace=wrap;html=1;" vertex="1" parent="9v5ITnaCEAP25ajlPp7t-48">
          <mxGeometry x="11.25" y="734" width="150" height="75" as="geometry" />
        </mxCell>
        <mxCell id="9v5ITnaCEAP25ajlPp7t-31" value="" style="edgeStyle=orthogonalEdgeStyle;rounded=0;orthogonalLoop=1;jettySize=auto;html=1;" edge="1" parent="9v5ITnaCEAP25ajlPp7t-48" source="9v5ITnaCEAP25ajlPp7t-11" target="9v5ITnaCEAP25ajlPp7t-20">
          <mxGeometry relative="1" as="geometry" />
        </mxCell>
        <mxCell id="9v5ITnaCEAP25ajlPp7t-33" value="Sai" style="edgeLabel;html=1;align=center;verticalAlign=middle;resizable=0;points=[];" vertex="1" connectable="0" parent="9v5ITnaCEAP25ajlPp7t-31">
          <mxGeometry x="-0.161" relative="1" as="geometry">
            <mxPoint as="offset" />
          </mxGeometry>
        </mxCell>
        <mxCell id="9v5ITnaCEAP25ajlPp7t-60" value="&lt;font style=&quot;font-size: 14px;&quot;&gt;Sơ đồ 1&lt;/font&gt;" style="swimlane;whiteSpace=wrap;html=1;startSize=30;dashed=1;dashPattern=8 8;" vertex="1" parent="9v5ITnaCEAP25ajlPp7t-61">
          <mxGeometry width="520" height="870" as="geometry" />
        </mxCell>
        <mxCell id="9v5ITnaCEAP25ajlPp7t-62" value="" style="group" vertex="1" connectable="0" parent="1">
          <mxGeometry x="880" y="-30" width="670" height="1200" as="geometry" />
        </mxCell>
        <mxCell id="9v5ITnaCEAP25ajlPp7t-46" value="" style="group" vertex="1" connectable="0" parent="9v5ITnaCEAP25ajlPp7t-62">
          <mxGeometry x="20" y="32" width="630" height="1158" as="geometry" />
        </mxCell>
        <mxCell id="HS3srLB-XvaPmOaS-rye-26" value="Bắt đầu xử lý sự kiện" style="ellipse;whiteSpace=wrap;html=1;" parent="9v5ITnaCEAP25ajlPp7t-46" vertex="1">
          <mxGeometry x="17.5" y="10" width="165" height="65" as="geometry" />
        </mxCell>
        <mxCell id="R89Swn8tOhW7z6OgcxIm-2" value="&lt;div style=&quot;&quot;&gt;&lt;span style=&quot;background-color: initial;&quot;&gt;+ Nháy tất cả các led RGB màu GREEN năm lần&lt;/span&gt;&lt;/div&gt;+&amp;nbsp;Còi kêu bíp hai lần" style="rounded=0;whiteSpace=wrap;html=1;align=left;" parent="9v5ITnaCEAP25ajlPp7t-46" vertex="1">
          <mxGeometry x="300" y="113" width="270" height="60" as="geometry" />
        </mxCell>
        <mxCell id="R89Swn8tOhW7z6OgcxIm-77" style="edgeStyle=orthogonalEdgeStyle;rounded=0;orthogonalLoop=1;jettySize=auto;html=1;exitX=1;exitY=0.5;exitDx=0;exitDy=0;" parent="9v5ITnaCEAP25ajlPp7t-46" source="R89Swn8tOhW7z6OgcxIm-10" edge="1">
          <mxGeometry relative="1" as="geometry">
            <mxPoint x="630" y="253" as="targetPoint" />
          </mxGeometry>
        </mxCell>
        <mxCell id="R89Swn8tOhW7z6OgcxIm-10" value="&lt;div style=&quot;&quot;&gt;&lt;span style=&quot;background-color: initial;&quot;&gt;Bật Led BLUE&lt;/span&gt;&lt;/div&gt;&lt;div style=&quot;&quot;&gt;&lt;/div&gt;" style="rounded=0;whiteSpace=wrap;html=1;align=center;" parent="9v5ITnaCEAP25ajlPp7t-46" vertex="1">
          <mxGeometry x="300" y="223" width="270" height="60" as="geometry" />
        </mxCell>
        <mxCell id="R89Swn8tOhW7z6OgcxIm-78" style="edgeStyle=orthogonalEdgeStyle;rounded=0;orthogonalLoop=1;jettySize=auto;html=1;exitX=1;exitY=0.5;exitDx=0;exitDy=0;" parent="9v5ITnaCEAP25ajlPp7t-46" source="R89Swn8tOhW7z6OgcxIm-11" edge="1">
          <mxGeometry relative="1" as="geometry">
            <mxPoint x="630" y="363" as="targetPoint" />
          </mxGeometry>
        </mxCell>
        <mxCell id="R89Swn8tOhW7z6OgcxIm-11" value="&lt;div style=&quot;&quot;&gt;&lt;span style=&quot;background-color: initial;&quot;&gt;Tắt Led BLUE&lt;/span&gt;&lt;/div&gt;&lt;div style=&quot;&quot;&gt;&lt;/div&gt;" style="rounded=0;whiteSpace=wrap;html=1;align=center;" parent="9v5ITnaCEAP25ajlPp7t-46" vertex="1">
          <mxGeometry x="300" y="333" width="270" height="60" as="geometry" />
        </mxCell>
        <mxCell id="R89Swn8tOhW7z6OgcxIm-79" style="edgeStyle=orthogonalEdgeStyle;rounded=0;orthogonalLoop=1;jettySize=auto;html=1;exitX=1;exitY=0.5;exitDx=0;exitDy=0;" parent="9v5ITnaCEAP25ajlPp7t-46" source="R89Swn8tOhW7z6OgcxIm-12" edge="1">
          <mxGeometry relative="1" as="geometry">
            <mxPoint x="630" y="473" as="targetPoint" />
          </mxGeometry>
        </mxCell>
        <mxCell id="R89Swn8tOhW7z6OgcxIm-12" value="&lt;div style=&quot;&quot;&gt;&lt;span style=&quot;background-color: initial;&quot;&gt;Bật Led RED&lt;/span&gt;&lt;/div&gt;&lt;div style=&quot;&quot;&gt;&lt;/div&gt;" style="rounded=0;whiteSpace=wrap;html=1;align=center;" parent="9v5ITnaCEAP25ajlPp7t-46" vertex="1">
          <mxGeometry x="300" y="443" width="270" height="60" as="geometry" />
        </mxCell>
        <mxCell id="R89Swn8tOhW7z6OgcxIm-80" style="edgeStyle=orthogonalEdgeStyle;rounded=0;orthogonalLoop=1;jettySize=auto;html=1;exitX=1;exitY=0.5;exitDx=0;exitDy=0;" parent="9v5ITnaCEAP25ajlPp7t-46" source="R89Swn8tOhW7z6OgcxIm-13" edge="1">
          <mxGeometry relative="1" as="geometry">
            <mxPoint x="630" y="583" as="targetPoint" />
          </mxGeometry>
        </mxCell>
        <mxCell id="R89Swn8tOhW7z6OgcxIm-13" value="&lt;div style=&quot;&quot;&gt;&lt;span style=&quot;background-color: initial;&quot;&gt;Tắt Led RED&lt;/span&gt;&lt;/div&gt;&lt;div style=&quot;&quot;&gt;&lt;/div&gt;" style="rounded=0;whiteSpace=wrap;html=1;align=center;" parent="9v5ITnaCEAP25ajlPp7t-46" vertex="1">
          <mxGeometry x="300" y="553" width="270" height="60" as="geometry" />
        </mxCell>
        <mxCell id="R89Swn8tOhW7z6OgcxIm-81" style="edgeStyle=orthogonalEdgeStyle;rounded=0;orthogonalLoop=1;jettySize=auto;html=1;exitX=1;exitY=0.5;exitDx=0;exitDy=0;" parent="9v5ITnaCEAP25ajlPp7t-46" source="R89Swn8tOhW7z6OgcxIm-16" edge="1">
          <mxGeometry relative="1" as="geometry">
            <mxPoint x="630" y="693" as="targetPoint" />
          </mxGeometry>
        </mxCell>
        <mxCell id="R89Swn8tOhW7z6OgcxIm-16" value="&lt;div style=&quot;&quot;&gt;&lt;span style=&quot;background-color: initial;&quot;&gt;Bật Led BLUE&lt;/span&gt;&lt;/div&gt;&lt;div style=&quot;&quot;&gt;&lt;/div&gt;" style="rounded=0;whiteSpace=wrap;html=1;align=center;" parent="9v5ITnaCEAP25ajlPp7t-46" vertex="1">
          <mxGeometry x="300" y="663" width="270" height="60" as="geometry" />
        </mxCell>
        <mxCell id="R89Swn8tOhW7z6OgcxIm-82" style="edgeStyle=orthogonalEdgeStyle;rounded=0;orthogonalLoop=1;jettySize=auto;html=1;exitX=1;exitY=0.5;exitDx=0;exitDy=0;" parent="9v5ITnaCEAP25ajlPp7t-46" source="R89Swn8tOhW7z6OgcxIm-17" edge="1">
          <mxGeometry relative="1" as="geometry">
            <mxPoint x="630" y="803" as="targetPoint" />
          </mxGeometry>
        </mxCell>
        <mxCell id="R89Swn8tOhW7z6OgcxIm-17" value="&lt;div style=&quot;&quot;&gt;&lt;span style=&quot;background-color: initial;&quot;&gt;Tắt Led BLUE&lt;/span&gt;&lt;/div&gt;&lt;div style=&quot;&quot;&gt;&lt;/div&gt;" style="rounded=0;whiteSpace=wrap;html=1;align=center;" parent="9v5ITnaCEAP25ajlPp7t-46" vertex="1">
          <mxGeometry x="300" y="773" width="270" height="60" as="geometry" />
        </mxCell>
        <mxCell id="R89Swn8tOhW7z6OgcxIm-83" style="edgeStyle=orthogonalEdgeStyle;rounded=0;orthogonalLoop=1;jettySize=auto;html=1;exitX=1;exitY=0.5;exitDx=0;exitDy=0;" parent="9v5ITnaCEAP25ajlPp7t-46" source="R89Swn8tOhW7z6OgcxIm-20" edge="1">
          <mxGeometry relative="1" as="geometry">
            <mxPoint x="630" y="913" as="targetPoint" />
          </mxGeometry>
        </mxCell>
        <mxCell id="R89Swn8tOhW7z6OgcxIm-20" value="&lt;div style=&quot;&quot;&gt;&lt;span style=&quot;background-color: initial;&quot;&gt;Bật Led RED&lt;/span&gt;&lt;/div&gt;&lt;div style=&quot;&quot;&gt;&lt;/div&gt;" style="rounded=0;whiteSpace=wrap;html=1;align=center;" parent="9v5ITnaCEAP25ajlPp7t-46" vertex="1">
          <mxGeometry x="300" y="883" width="270" height="60" as="geometry" />
        </mxCell>
        <mxCell id="R89Swn8tOhW7z6OgcxIm-84" style="edgeStyle=orthogonalEdgeStyle;rounded=0;orthogonalLoop=1;jettySize=auto;html=1;exitX=1;exitY=0.5;exitDx=0;exitDy=0;" parent="9v5ITnaCEAP25ajlPp7t-46" source="R89Swn8tOhW7z6OgcxIm-21" edge="1">
          <mxGeometry relative="1" as="geometry">
            <mxPoint x="630" y="1023" as="targetPoint" />
          </mxGeometry>
        </mxCell>
        <mxCell id="R89Swn8tOhW7z6OgcxIm-21" value="&lt;div style=&quot;&quot;&gt;&lt;span style=&quot;background-color: initial;&quot;&gt;Tắt Led RED&lt;/span&gt;&lt;/div&gt;&lt;div style=&quot;&quot;&gt;&lt;/div&gt;" style="rounded=0;whiteSpace=wrap;html=1;align=center;" parent="9v5ITnaCEAP25ajlPp7t-46" vertex="1">
          <mxGeometry x="300" y="993" width="270" height="60" as="geometry" />
        </mxCell>
        <mxCell id="R89Swn8tOhW7z6OgcxIm-22" value="END" style="ellipse;whiteSpace=wrap;html=1;" parent="9v5ITnaCEAP25ajlPp7t-46" vertex="1">
          <mxGeometry x="25" y="1108" width="150" height="50" as="geometry" />
        </mxCell>
        <mxCell id="R89Swn8tOhW7z6OgcxIm-76" style="edgeStyle=orthogonalEdgeStyle;rounded=0;orthogonalLoop=1;jettySize=auto;html=1;exitX=1;exitY=0.5;exitDx=0;exitDy=0;entryX=1;entryY=0.5;entryDx=0;entryDy=0;" parent="9v5ITnaCEAP25ajlPp7t-46" source="R89Swn8tOhW7z6OgcxIm-2" target="R89Swn8tOhW7z6OgcxIm-22" edge="1">
          <mxGeometry relative="1" as="geometry">
            <Array as="points">
              <mxPoint x="630" y="143" />
              <mxPoint x="630" y="1133" />
            </Array>
          </mxGeometry>
        </mxCell>
        <mxCell id="R89Swn8tOhW7z6OgcxIm-54" value="" style="edgeStyle=orthogonalEdgeStyle;rounded=0;orthogonalLoop=1;jettySize=auto;html=1;" parent="9v5ITnaCEAP25ajlPp7t-46" source="R89Swn8tOhW7z6OgcxIm-24" target="R89Swn8tOhW7z6OgcxIm-2" edge="1">
          <mxGeometry relative="1" as="geometry" />
        </mxCell>
        <mxCell id="R89Swn8tOhW7z6OgcxIm-56" value="Đúng" style="edgeLabel;html=1;align=center;verticalAlign=middle;resizable=0;points=[];" parent="R89Swn8tOhW7z6OgcxIm-54" vertex="1" connectable="0">
          <mxGeometry x="0.08" relative="1" as="geometry">
            <mxPoint as="offset" />
          </mxGeometry>
        </mxCell>
        <mxCell id="R89Swn8tOhW7z6OgcxIm-24" value="Nhấn nút B3 năm lần" style="rhombus;whiteSpace=wrap;html=1;" parent="9v5ITnaCEAP25ajlPp7t-46" vertex="1">
          <mxGeometry y="108" width="200" height="70" as="geometry" />
        </mxCell>
        <mxCell id="9v5ITnaCEAP25ajlPp7t-39" value="" style="edgeStyle=orthogonalEdgeStyle;rounded=0;orthogonalLoop=1;jettySize=auto;html=1;" edge="1" parent="9v5ITnaCEAP25ajlPp7t-46" source="HS3srLB-XvaPmOaS-rye-26" target="R89Swn8tOhW7z6OgcxIm-24">
          <mxGeometry relative="1" as="geometry" />
        </mxCell>
        <mxCell id="R89Swn8tOhW7z6OgcxIm-60" value="" style="edgeStyle=orthogonalEdgeStyle;rounded=0;orthogonalLoop=1;jettySize=auto;html=1;" parent="9v5ITnaCEAP25ajlPp7t-46" source="R89Swn8tOhW7z6OgcxIm-25" target="R89Swn8tOhW7z6OgcxIm-10" edge="1">
          <mxGeometry relative="1" as="geometry" />
        </mxCell>
        <mxCell id="R89Swn8tOhW7z6OgcxIm-68" value="Đúng" style="edgeLabel;html=1;align=center;verticalAlign=middle;resizable=0;points=[];" parent="R89Swn8tOhW7z6OgcxIm-60" vertex="1" connectable="0">
          <mxGeometry x="0.04" relative="1" as="geometry">
            <mxPoint as="offset" />
          </mxGeometry>
        </mxCell>
        <mxCell id="R89Swn8tOhW7z6OgcxIm-25" value="Nhấn giữ nút B2" style="rhombus;whiteSpace=wrap;html=1;" parent="9v5ITnaCEAP25ajlPp7t-46" vertex="1">
          <mxGeometry y="218" width="200" height="70" as="geometry" />
        </mxCell>
        <mxCell id="R89Swn8tOhW7z6OgcxIm-34" value="" style="edgeStyle=orthogonalEdgeStyle;rounded=0;orthogonalLoop=1;jettySize=auto;html=1;" parent="9v5ITnaCEAP25ajlPp7t-46" source="R89Swn8tOhW7z6OgcxIm-24" target="R89Swn8tOhW7z6OgcxIm-25" edge="1">
          <mxGeometry relative="1" as="geometry" />
        </mxCell>
        <mxCell id="R89Swn8tOhW7z6OgcxIm-40" value="Sai" style="edgeLabel;html=1;align=center;verticalAlign=middle;resizable=0;points=[];" parent="R89Swn8tOhW7z6OgcxIm-34" vertex="1" connectable="0">
          <mxGeometry x="0.1111" y="2" relative="1" as="geometry">
            <mxPoint y="-6" as="offset" />
          </mxGeometry>
        </mxCell>
        <mxCell id="R89Swn8tOhW7z6OgcxIm-61" value="" style="edgeStyle=orthogonalEdgeStyle;rounded=0;orthogonalLoop=1;jettySize=auto;html=1;" parent="9v5ITnaCEAP25ajlPp7t-46" source="R89Swn8tOhW7z6OgcxIm-26" target="R89Swn8tOhW7z6OgcxIm-11" edge="1">
          <mxGeometry relative="1" as="geometry" />
        </mxCell>
        <mxCell id="R89Swn8tOhW7z6OgcxIm-69" value="Đúng" style="edgeLabel;html=1;align=center;verticalAlign=middle;resizable=0;points=[];" parent="R89Swn8tOhW7z6OgcxIm-61" vertex="1" connectable="0">
          <mxGeometry y="-1" relative="1" as="geometry">
            <mxPoint as="offset" />
          </mxGeometry>
        </mxCell>
        <mxCell id="R89Swn8tOhW7z6OgcxIm-26" value="Nhả nút B2" style="rhombus;whiteSpace=wrap;html=1;" parent="9v5ITnaCEAP25ajlPp7t-46" vertex="1">
          <mxGeometry y="328" width="200" height="70" as="geometry" />
        </mxCell>
        <mxCell id="R89Swn8tOhW7z6OgcxIm-35" value="" style="edgeStyle=orthogonalEdgeStyle;rounded=0;orthogonalLoop=1;jettySize=auto;html=1;" parent="9v5ITnaCEAP25ajlPp7t-46" source="R89Swn8tOhW7z6OgcxIm-25" target="R89Swn8tOhW7z6OgcxIm-26" edge="1">
          <mxGeometry relative="1" as="geometry" />
        </mxCell>
        <mxCell id="R89Swn8tOhW7z6OgcxIm-41" value="Sai" style="edgeLabel;html=1;align=center;verticalAlign=middle;resizable=0;points=[];" parent="R89Swn8tOhW7z6OgcxIm-35" vertex="1" connectable="0">
          <mxGeometry relative="1" as="geometry">
            <mxPoint y="-4" as="offset" />
          </mxGeometry>
        </mxCell>
        <mxCell id="R89Swn8tOhW7z6OgcxIm-62" value="" style="edgeStyle=orthogonalEdgeStyle;rounded=0;orthogonalLoop=1;jettySize=auto;html=1;" parent="9v5ITnaCEAP25ajlPp7t-46" source="R89Swn8tOhW7z6OgcxIm-27" target="R89Swn8tOhW7z6OgcxIm-12" edge="1">
          <mxGeometry relative="1" as="geometry" />
        </mxCell>
        <mxCell id="R89Swn8tOhW7z6OgcxIm-70" value="Đúng" style="edgeLabel;html=1;align=center;verticalAlign=middle;resizable=0;points=[];" parent="R89Swn8tOhW7z6OgcxIm-62" vertex="1" connectable="0">
          <mxGeometry x="0.06" y="1" relative="1" as="geometry">
            <mxPoint as="offset" />
          </mxGeometry>
        </mxCell>
        <mxCell id="R89Swn8tOhW7z6OgcxIm-27" value="Nhấn giữ nút B4" style="rhombus;whiteSpace=wrap;html=1;" parent="9v5ITnaCEAP25ajlPp7t-46" vertex="1">
          <mxGeometry y="438" width="200" height="70" as="geometry" />
        </mxCell>
        <mxCell id="R89Swn8tOhW7z6OgcxIm-36" value="" style="edgeStyle=orthogonalEdgeStyle;rounded=0;orthogonalLoop=1;jettySize=auto;html=1;" parent="9v5ITnaCEAP25ajlPp7t-46" source="R89Swn8tOhW7z6OgcxIm-26" target="R89Swn8tOhW7z6OgcxIm-27" edge="1">
          <mxGeometry relative="1" as="geometry" />
        </mxCell>
        <mxCell id="R89Swn8tOhW7z6OgcxIm-42" value="Sai" style="edgeLabel;html=1;align=center;verticalAlign=middle;resizable=0;points=[];" parent="R89Swn8tOhW7z6OgcxIm-36" vertex="1" connectable="0">
          <mxGeometry x="-0.1" y="-3" relative="1" as="geometry">
            <mxPoint as="offset" />
          </mxGeometry>
        </mxCell>
        <mxCell id="R89Swn8tOhW7z6OgcxIm-63" value="" style="edgeStyle=orthogonalEdgeStyle;rounded=0;orthogonalLoop=1;jettySize=auto;html=1;" parent="9v5ITnaCEAP25ajlPp7t-46" source="R89Swn8tOhW7z6OgcxIm-28" target="R89Swn8tOhW7z6OgcxIm-13" edge="1">
          <mxGeometry relative="1" as="geometry" />
        </mxCell>
        <mxCell id="R89Swn8tOhW7z6OgcxIm-71" value="Đúng" style="edgeLabel;html=1;align=center;verticalAlign=middle;resizable=0;points=[];" parent="R89Swn8tOhW7z6OgcxIm-63" vertex="1" connectable="0">
          <mxGeometry x="0.06" y="2" relative="1" as="geometry">
            <mxPoint as="offset" />
          </mxGeometry>
        </mxCell>
        <mxCell id="R89Swn8tOhW7z6OgcxIm-28" value="Nhả nút B4" style="rhombus;whiteSpace=wrap;html=1;" parent="9v5ITnaCEAP25ajlPp7t-46" vertex="1">
          <mxGeometry y="548" width="200" height="70" as="geometry" />
        </mxCell>
        <mxCell id="R89Swn8tOhW7z6OgcxIm-38" value="" style="edgeStyle=orthogonalEdgeStyle;rounded=0;orthogonalLoop=1;jettySize=auto;html=1;" parent="9v5ITnaCEAP25ajlPp7t-46" source="R89Swn8tOhW7z6OgcxIm-27" target="R89Swn8tOhW7z6OgcxIm-28" edge="1">
          <mxGeometry relative="1" as="geometry" />
        </mxCell>
        <mxCell id="R89Swn8tOhW7z6OgcxIm-43" value="Sai" style="edgeLabel;html=1;align=center;verticalAlign=middle;resizable=0;points=[];" parent="R89Swn8tOhW7z6OgcxIm-38" vertex="1" connectable="0">
          <mxGeometry x="-0.2" y="-2" relative="1" as="geometry">
            <mxPoint as="offset" />
          </mxGeometry>
        </mxCell>
        <mxCell id="R89Swn8tOhW7z6OgcxIm-64" value="" style="edgeStyle=orthogonalEdgeStyle;rounded=0;orthogonalLoop=1;jettySize=auto;html=1;" parent="9v5ITnaCEAP25ajlPp7t-46" source="R89Swn8tOhW7z6OgcxIm-29" target="R89Swn8tOhW7z6OgcxIm-16" edge="1">
          <mxGeometry relative="1" as="geometry" />
        </mxCell>
        <mxCell id="R89Swn8tOhW7z6OgcxIm-72" value="Đúng" style="edgeLabel;html=1;align=center;verticalAlign=middle;resizable=0;points=[];" parent="R89Swn8tOhW7z6OgcxIm-64" vertex="1" connectable="0">
          <mxGeometry x="0.04" y="2" relative="1" as="geometry">
            <mxPoint as="offset" />
          </mxGeometry>
        </mxCell>
        <mxCell id="R89Swn8tOhW7z6OgcxIm-29" value="Nhấn nút B2 hai lần" style="rhombus;whiteSpace=wrap;html=1;" parent="9v5ITnaCEAP25ajlPp7t-46" vertex="1">
          <mxGeometry y="658" width="200" height="70" as="geometry" />
        </mxCell>
        <mxCell id="R89Swn8tOhW7z6OgcxIm-39" value="" style="edgeStyle=orthogonalEdgeStyle;rounded=0;orthogonalLoop=1;jettySize=auto;html=1;" parent="9v5ITnaCEAP25ajlPp7t-46" source="R89Swn8tOhW7z6OgcxIm-28" target="R89Swn8tOhW7z6OgcxIm-29" edge="1">
          <mxGeometry relative="1" as="geometry" />
        </mxCell>
        <mxCell id="R89Swn8tOhW7z6OgcxIm-44" value="Sai" style="edgeLabel;html=1;align=center;verticalAlign=middle;resizable=0;points=[];" parent="R89Swn8tOhW7z6OgcxIm-39" vertex="1" connectable="0">
          <mxGeometry x="-0.15" y="1" relative="1" as="geometry">
            <mxPoint as="offset" />
          </mxGeometry>
        </mxCell>
        <mxCell id="R89Swn8tOhW7z6OgcxIm-65" value="" style="edgeStyle=orthogonalEdgeStyle;rounded=0;orthogonalLoop=1;jettySize=auto;html=1;" parent="9v5ITnaCEAP25ajlPp7t-46" source="R89Swn8tOhW7z6OgcxIm-30" target="R89Swn8tOhW7z6OgcxIm-17" edge="1">
          <mxGeometry relative="1" as="geometry" />
        </mxCell>
        <mxCell id="R89Swn8tOhW7z6OgcxIm-73" value="Đúng" style="edgeLabel;html=1;align=center;verticalAlign=middle;resizable=0;points=[];" parent="R89Swn8tOhW7z6OgcxIm-65" vertex="1" connectable="0">
          <mxGeometry x="0.04" y="3" relative="1" as="geometry">
            <mxPoint y="1" as="offset" />
          </mxGeometry>
        </mxCell>
        <mxCell id="R89Swn8tOhW7z6OgcxIm-30" value="Nhấn&amp;nbsp;nút B2 một lần" style="rhombus;whiteSpace=wrap;html=1;" parent="9v5ITnaCEAP25ajlPp7t-46" vertex="1">
          <mxGeometry y="768" width="200" height="70" as="geometry" />
        </mxCell>
        <mxCell id="R89Swn8tOhW7z6OgcxIm-45" value="" style="edgeStyle=orthogonalEdgeStyle;rounded=0;orthogonalLoop=1;jettySize=auto;html=1;" parent="9v5ITnaCEAP25ajlPp7t-46" source="R89Swn8tOhW7z6OgcxIm-29" target="R89Swn8tOhW7z6OgcxIm-30" edge="1">
          <mxGeometry relative="1" as="geometry" />
        </mxCell>
        <mxCell id="R89Swn8tOhW7z6OgcxIm-46" value="Sai" style="edgeLabel;html=1;align=center;verticalAlign=middle;resizable=0;points=[];" parent="R89Swn8tOhW7z6OgcxIm-45" vertex="1" connectable="0">
          <mxGeometry x="-0.1" y="-1" relative="1" as="geometry">
            <mxPoint as="offset" />
          </mxGeometry>
        </mxCell>
        <mxCell id="R89Swn8tOhW7z6OgcxIm-66" value="" style="edgeStyle=orthogonalEdgeStyle;rounded=0;orthogonalLoop=1;jettySize=auto;html=1;" parent="9v5ITnaCEAP25ajlPp7t-46" source="R89Swn8tOhW7z6OgcxIm-31" target="R89Swn8tOhW7z6OgcxIm-20" edge="1">
          <mxGeometry relative="1" as="geometry" />
        </mxCell>
        <mxCell id="R89Swn8tOhW7z6OgcxIm-74" value="Đúng" style="edgeLabel;html=1;align=center;verticalAlign=middle;resizable=0;points=[];" parent="R89Swn8tOhW7z6OgcxIm-66" vertex="1" connectable="0">
          <mxGeometry x="0.08" relative="1" as="geometry">
            <mxPoint as="offset" />
          </mxGeometry>
        </mxCell>
        <mxCell id="R89Swn8tOhW7z6OgcxIm-31" value="Nhấn nút B4 hai lần" style="rhombus;whiteSpace=wrap;html=1;" parent="9v5ITnaCEAP25ajlPp7t-46" vertex="1">
          <mxGeometry y="878" width="200" height="70" as="geometry" />
        </mxCell>
        <mxCell id="R89Swn8tOhW7z6OgcxIm-48" value="" style="edgeStyle=orthogonalEdgeStyle;rounded=0;orthogonalLoop=1;jettySize=auto;html=1;" parent="9v5ITnaCEAP25ajlPp7t-46" source="R89Swn8tOhW7z6OgcxIm-30" target="R89Swn8tOhW7z6OgcxIm-31" edge="1">
          <mxGeometry relative="1" as="geometry" />
        </mxCell>
        <mxCell id="R89Swn8tOhW7z6OgcxIm-49" value="Sai" style="edgeLabel;html=1;align=center;verticalAlign=middle;resizable=0;points=[];" parent="R89Swn8tOhW7z6OgcxIm-48" vertex="1" connectable="0">
          <mxGeometry x="-0.35" relative="1" as="geometry">
            <mxPoint y="3" as="offset" />
          </mxGeometry>
        </mxCell>
        <mxCell id="R89Swn8tOhW7z6OgcxIm-52" value="" style="edgeStyle=orthogonalEdgeStyle;rounded=0;orthogonalLoop=1;jettySize=auto;html=1;" parent="9v5ITnaCEAP25ajlPp7t-46" source="R89Swn8tOhW7z6OgcxIm-32" target="R89Swn8tOhW7z6OgcxIm-22" edge="1">
          <mxGeometry relative="1" as="geometry" />
        </mxCell>
        <mxCell id="R89Swn8tOhW7z6OgcxIm-53" value="Sai" style="edgeLabel;html=1;align=center;verticalAlign=middle;resizable=0;points=[];" parent="R89Swn8tOhW7z6OgcxIm-52" vertex="1" connectable="0">
          <mxGeometry x="-0.3" relative="1" as="geometry">
            <mxPoint y="3" as="offset" />
          </mxGeometry>
        </mxCell>
        <mxCell id="R89Swn8tOhW7z6OgcxIm-67" value="" style="edgeStyle=orthogonalEdgeStyle;rounded=0;orthogonalLoop=1;jettySize=auto;html=1;" parent="9v5ITnaCEAP25ajlPp7t-46" source="R89Swn8tOhW7z6OgcxIm-32" target="R89Swn8tOhW7z6OgcxIm-21" edge="1">
          <mxGeometry relative="1" as="geometry" />
        </mxCell>
        <mxCell id="R89Swn8tOhW7z6OgcxIm-75" value="Đúng" style="edgeLabel;html=1;align=center;verticalAlign=middle;resizable=0;points=[];" parent="R89Swn8tOhW7z6OgcxIm-67" vertex="1" connectable="0">
          <mxGeometry x="0.02" y="-2" relative="1" as="geometry">
            <mxPoint x="2" y="-3" as="offset" />
          </mxGeometry>
        </mxCell>
        <mxCell id="R89Swn8tOhW7z6OgcxIm-32" value="Nhấn&amp;nbsp;nút B4 một lần" style="rhombus;whiteSpace=wrap;html=1;" parent="9v5ITnaCEAP25ajlPp7t-46" vertex="1">
          <mxGeometry y="988" width="200" height="70" as="geometry" />
        </mxCell>
        <mxCell id="R89Swn8tOhW7z6OgcxIm-50" value="" style="edgeStyle=orthogonalEdgeStyle;rounded=0;orthogonalLoop=1;jettySize=auto;html=1;" parent="9v5ITnaCEAP25ajlPp7t-46" source="R89Swn8tOhW7z6OgcxIm-31" target="R89Swn8tOhW7z6OgcxIm-32" edge="1">
          <mxGeometry relative="1" as="geometry" />
        </mxCell>
        <mxCell id="R89Swn8tOhW7z6OgcxIm-51" value="Sai" style="edgeLabel;html=1;align=center;verticalAlign=middle;resizable=0;points=[];" parent="R89Swn8tOhW7z6OgcxIm-50" vertex="1" connectable="0">
          <mxGeometry x="-0.15" y="-1" relative="1" as="geometry">
            <mxPoint as="offset" />
          </mxGeometry>
        </mxCell>
        <mxCell id="9v5ITnaCEAP25ajlPp7t-59" value="&lt;font style=&quot;font-size: 14px;&quot;&gt;Sơ đồ 2&lt;/font&gt;" style="swimlane;whiteSpace=wrap;html=1;dashed=1;dashPattern=8 8;startSize=30;" vertex="1" parent="9v5ITnaCEAP25ajlPp7t-62">
          <mxGeometry width="670" height="1200" as="geometry" />
        </mxCell>
      </root>
    </mxGraphModel>
  </diagram>
</mxfile>
